<svg width="513" height="513" viewBox="0 0 513 513" fill="none" xmlns="http://www.w3.org/2000/svg">
<path d="M464.234 272.393H400.684V224.193C400.684 221.313 400.594 218.49 400.414 215.723C429.984 187.843 432.664 151.093 432.684 112.723C432.684 104.113 426.044 96.7232 417.434 96.3132C415.275 96.2118 413.118 96.5491 411.092 97.3045C409.067 98.0599 407.216 99.2179 405.651 100.709C404.085 102.199 402.838 103.992 401.984 105.977C401.131 107.963 400.689 110.102 400.684 112.263C400.684 140.263 398.824 160.413 390.784 176.103C371.564 134.953 325.004 112.193 256.684 112.193C216.884 112.193 182.494 121.323 157.254 138.583C142.354 148.773 131.054 161.493 123.554 176.303C114.684 160.913 112.684 141.263 112.684 112.723C112.684 104.113 106.084 96.7232 97.4842 96.2832C95.3184 96.1747 93.1532 96.5077 91.12 97.2618C89.0868 98.0159 87.2282 99.1755 85.657 100.67C84.0857 102.165 82.8347 103.963 81.9799 105.956C81.125 107.949 80.6842 110.095 80.6842 112.263C80.6842 149.893 83.2942 185.993 113.124 213.893C112.838 217.266 112.691 220.7 112.684 224.193V272.393H49.1342C40.5242 272.393 33.1342 279.013 32.7042 287.623C32.5999 289.788 32.9366 291.952 33.6938 293.983C34.451 296.014 35.6131 297.87 37.1093 299.438C38.6056 301.006 40.4049 302.254 42.398 303.106C44.3912 303.958 46.5367 304.396 48.7042 304.393H112.704V320.263C112.689 338.661 116.217 356.889 123.094 373.953C97.4242 396.903 80.8642 422.263 80.6842 463.603C80.6842 472.343 87.3042 479.903 96.0442 480.253C98.1977 480.339 100.347 479.99 102.362 479.225C104.377 478.46 106.216 477.296 107.77 475.803C109.324 474.309 110.561 472.517 111.405 470.535C112.25 468.552 112.685 466.418 112.684 464.263C112.684 436.603 121.784 419.553 138.854 402.943C158.539 430.962 187.542 451.073 220.684 459.683C223.048 460.294 225.521 460.355 227.912 459.862C230.304 459.37 232.551 458.336 234.481 456.841C236.412 455.346 237.974 453.429 239.05 451.236C240.125 449.044 240.684 446.635 240.684 444.193V192.713C240.684 184.103 247.304 176.713 255.914 176.283C258.078 176.179 260.24 176.515 262.269 177.271C264.299 178.027 266.154 179.187 267.722 180.681C269.29 182.175 270.538 183.972 271.391 185.963C272.244 187.954 272.684 190.097 272.684 192.263V444.193C272.684 446.635 273.244 449.044 274.319 451.236C275.394 453.429 276.957 455.346 278.887 456.841C280.817 458.336 283.064 459.37 285.456 459.862C287.847 460.355 290.32 460.294 292.684 459.683C325.822 451.068 354.82 430.959 374.504 402.943C391.504 419.483 400.594 436.463 400.674 463.893C400.638 468.03 402.179 472.026 404.984 475.067C407.789 478.108 411.648 479.966 415.774 480.263C417.951 480.387 420.129 480.065 422.177 479.317C424.224 478.568 426.097 477.409 427.681 475.911C429.264 474.413 430.525 472.607 431.385 470.604C432.246 468.601 432.688 466.443 432.684 464.263C432.684 422.583 416.084 397.033 390.294 373.953C397.171 356.889 400.699 338.661 400.684 320.263V304.393H464.684C466.852 304.396 468.997 303.958 470.99 303.106C472.984 302.254 474.783 301.006 476.279 299.438C477.775 297.87 478.937 296.014 479.695 293.983C480.452 291.952 480.789 289.788 480.684 287.623C480.264 279.013 472.844 272.393 464.234 272.393Z" fill="black"/>
<path d="M322.074 104.263L322.394 104.353C335.964 108.153 347.464 93.8032 340.594 81.5032C332.291 66.5859 320.155 54.1567 305.441 45.5001C290.726 36.8436 273.966 32.2738 256.894 32.2632H256.474C239.23 32.2749 222.308 36.9376 207.491 45.76C192.674 54.5824 180.512 67.2379 172.284 82.3932C165.444 94.9732 177.424 109.393 191.124 105.253C210.834 99.2532 232.914 96.1932 256.684 96.1932C280.774 96.1932 302.774 98.9132 322.074 104.263Z" fill="black"/>
</svg>
