<svg width="513" height="513" viewBox="0 0 513 513" fill="none" xmlns="http://www.w3.org/2000/svg">
<path d="M416.684 80.2632H96.6842C70.1745 80.2632 48.6842 101.753 48.6842 128.263V416.263C48.6842 442.773 70.1745 464.263 96.6842 464.263H416.684C443.194 464.263 464.684 442.773 464.684 416.263V128.263C464.684 101.753 443.194 80.2632 416.684 80.2632Z" stroke="black" stroke-width="32" stroke-linejoin="round"/>
<path d="M296.684 256.263C309.939 256.263 320.684 245.518 320.684 232.263C320.684 219.008 309.939 208.263 296.684 208.263C283.429 208.263 272.684 219.008 272.684 232.263C272.684 245.518 283.429 256.263 296.684 256.263Z" fill="black"/>
<path d="M376.684 256.263C389.939 256.263 400.684 245.518 400.684 232.263C400.684 219.008 389.939 208.263 376.684 208.263C363.429 208.263 352.684 219.008 352.684 232.263C352.684 245.518 363.429 256.263 376.684 256.263Z" fill="black"/>
<path d="M296.684 336.263C309.939 336.263 320.684 325.518 320.684 312.263C320.684 299.008 309.939 288.263 296.684 288.263C283.429 288.263 272.684 299.008 272.684 312.263C272.684 325.518 283.429 336.263 296.684 336.263Z" fill="black"/>
<path d="M376.684 336.263C389.939 336.263 400.684 325.518 400.684 312.263C400.684 299.008 389.939 288.263 376.684 288.263C363.429 288.263 352.684 299.008 352.684 312.263C352.684 325.518 363.429 336.263 376.684 336.263Z" fill="black"/>
<path d="M136.684 336.263C149.939 336.263 160.684 325.518 160.684 312.263C160.684 299.008 149.939 288.263 136.684 288.263C123.429 288.263 112.684 299.008 112.684 312.263C112.684 325.518 123.429 336.263 136.684 336.263Z" fill="black"/>
<path d="M216.684 336.263C229.939 336.263 240.684 325.518 240.684 312.263C240.684 299.008 229.939 288.263 216.684 288.263C203.429 288.263 192.684 299.008 192.684 312.263C192.684 325.518 203.429 336.263 216.684 336.263Z" fill="black"/>
<path d="M136.684 416.263C149.939 416.263 160.684 405.518 160.684 392.263C160.684 379.008 149.939 368.263 136.684 368.263C123.429 368.263 112.684 379.008 112.684 392.263C112.684 405.518 123.429 416.263 136.684 416.263Z" fill="black"/>
<path d="M216.684 416.263C229.939 416.263 240.684 405.518 240.684 392.263C240.684 379.008 229.939 368.263 216.684 368.263C203.429 368.263 192.684 379.008 192.684 392.263C192.684 405.518 203.429 416.263 216.684 416.263Z" fill="black"/>
<path d="M296.684 416.263C309.939 416.263 320.684 405.518 320.684 392.263C320.684 379.008 309.939 368.263 296.684 368.263C283.429 368.263 272.684 379.008 272.684 392.263C272.684 405.518 283.429 416.263 296.684 416.263Z" fill="black"/>
<path d="M128.684 48.2632V80.2632M384.684 48.2632V80.2632" stroke="black" stroke-width="32" stroke-linecap="round" stroke-linejoin="round"/>
<path d="M464.684 160.263H48.6842" stroke="black" stroke-width="32" stroke-linejoin="round"/>
</svg>
