<svg width="513" height="513" viewBox="0 0 513 513" fill="none" xmlns="http://www.w3.org/2000/svg">
<path d="M416.684 221.513V416.263C416.684 428.994 411.627 441.203 402.625 450.204C393.624 459.206 381.415 464.263 368.684 464.263H144.684C131.954 464.263 119.745 459.206 110.743 450.204C101.741 441.203 96.6842 428.994 96.6842 416.263V96.2632C96.6842 83.5328 101.741 71.3238 110.743 62.322C119.745 53.3203 131.954 48.2632 144.684 48.2632H243.434C251.918 48.2644 260.054 51.6348 266.054 57.6332L407.314 198.893C413.313 204.893 416.683 213.029 416.684 221.513Z" stroke="black" stroke-width="32" stroke-linejoin="round"/>
<path d="M256.684 56.2632V176.263C256.684 184.75 260.056 192.889 266.057 198.891C272.058 204.892 280.197 208.263 288.684 208.263H408.684" stroke="black" stroke-width="32" stroke-linecap="round" stroke-linejoin="round"/>
</svg>
