<svg width="512" height="513" viewBox="0 0 512 513" fill="none" xmlns="http://www.w3.org/2000/svg">
<path d="M374.79 309.37L457.5 367.59C459.936 368.673 462.604 369.13 465.262 368.92C467.919 368.71 470.482 367.839 472.718 366.386C474.953 364.934 476.79 362.946 478.062 360.603C479.334 358.26 480 355.636 480 352.97V160.21C480 157.544 479.334 154.921 478.062 152.578C476.79 150.235 474.953 148.246 472.718 146.794C470.482 145.341 467.919 144.47 465.262 144.26C462.604 144.05 459.936 144.507 457.5 145.59L374.79 203.81C372.693 205.287 370.981 207.245 369.799 209.522C368.618 211.798 368.001 214.325 368 216.89V296.29C368.001 298.855 368.618 301.382 369.799 303.658C370.981 305.935 372.693 307.894 374.79 309.37Z" stroke="black" stroke-width="32" stroke-linecap="round" stroke-linejoin="round"/>
<path d="M268 384.59H84C70.2209 384.551 57.0175 379.059 47.2742 369.316C37.5308 359.573 32.0396 346.369 32 332.59V180.59C32.0396 166.811 37.5308 153.608 47.2742 143.864C57.0175 134.121 70.2209 128.63 84 128.59H268.48C282.131 128.632 295.211 134.074 304.864 143.727C314.516 153.379 319.958 166.459 320 180.11V332.59C319.96 346.369 314.469 359.573 304.726 369.316C294.983 379.059 281.779 384.551 268 384.59Z" stroke="black" stroke-width="32" stroke-miterlimit="10"/>
</svg>
